<?xml version="1.0" encoding="UTF-8" standalone="no"?>
<!-- Created with Inkscape (http://www.inkscape.org/) -->

<svg
   width="210mm"
   height="297mm"
   viewBox="0 0 210 297"
   version="1.1"
   id="svg5"
   inkscape:export-filename="bitmap.svg"
   inkscape:export-xdpi="1"
   inkscape:export-ydpi="1"
   xml:space="preserve"
   inkscape:version="1.2.2 (b0a8486541, 2022-12-01)"
   sodipodi:docname="logoo.svg"
   xmlns:inkscape="http://www.inkscape.org/namespaces/inkscape"
   xmlns:sodipodi="http://sodipodi.sourceforge.net/DTD/sodipodi-0.dtd"
   xmlns="http://www.w3.org/2000/svg"
   xmlns:svg="http://www.w3.org/2000/svg"><sodipodi:namedview
     id="namedview7"
     pagecolor="#ffffff"
     bordercolor="#000000"
     borderopacity="0.25"
     inkscape:showpageshadow="2"
     inkscape:pageopacity="0.0"
     inkscape:pagecheckerboard="0"
     inkscape:deskcolor="#d1d1d1"
     inkscape:document-units="mm"
     showgrid="false"
     inkscape:zoom="0.61825196"
     inkscape:cx="166.59874"
     inkscape:cy="505.45735"
     inkscape:window-width="1600"
     inkscape:window-height="851"
     inkscape:window-x="0"
     inkscape:window-y="0"
     inkscape:window-maximized="1"
     inkscape:current-layer="layer1" /><defs
     id="defs2" /><g
     inkscape:label="Capa 1"
     inkscape:groupmode="layer"
     id="layer1"><g
       id="surface716"
       transform="matrix(0.30173809,0,0,0.30173809,38.522951,37.621023)"><path
         style="fill:#000c21;fill-opacity:1;fill-rule:evenodd;stroke:#000c21;stroke-width:0.609059;stroke-linecap:butt;stroke-linejoin:round;stroke-miterlimit:10;stroke-opacity:1"
         d="m 23.8558,175.86417 c -4.193222,-26.69983 -5.816981,-40.5226 -7.036282,-53.18553 -1.225256,-12.66295 -2.052011,-24.172 -2.081741,-32.879634 -0.03561,-8.707631 0.725633,-14.61979 1.617803,-18.527508 0.892181,-3.907733 1.909267,-5.816993 2.736002,-7.595383 0.826754,-1.778404 1.45723,-3.431906 3.080979,-5.275739 1.617813,-1.843833 4.222973,-3.877981 6.417728,-5.596911 2.194735,-1.712976 3.97314,-3.110719 8.011716,-3.747139 4.03264,-0.63642 10.325441,-0.511502 19.734918,1.302578 9.409477,1.814095 21.929684,5.311414 34.259529,10.301658 12.329878,4.984273 24.469388,11.467424 33.212718,16.076991 8.73736,4.609566 14.07853,7.345578 18.17658,9.534381 4.09807,2.194756 6.95896,3.848243 8.42213,4.799892 1.46318,0.951661 1.5286,1.207419 -1.84383,7.880885 -3.36647,6.673489 -10.17078,19.770619 -15.00044,29.780819 -4.82963,10.0102 -7.69054,16.93944 -9.75444,23.13707 -2.06984,6.1917 -3.33673,11.66372 -4.41924,14.45919 -1.07655,2.79548 -1.96873,2.92039 -6.29281,3.1464 -4.31812,0.22008 -12.0741,0.54126 -24.296908,1.31448 -12.216844,0.77917 -28.906479,2.02227 -64.944412,4.88317"
         id="path528" /><path
         style="fill:#000c21;fill-opacity:1;fill-rule:evenodd;stroke:#000c21;stroke-width:0.609059;stroke-linecap:butt;stroke-linejoin:round;stroke-miterlimit:10;stroke-opacity:1"
         d="m 140.93893,88.002756 c 15.25619,-24.403976 22.88133,-38.137525 28.19869,-47.2496 5.31141,-9.11209 8.31507,-13.608646 12.23469,-18.717838 3.91367,-5.109192 8.74926,-10.831005 13.38859,-15.4703236 4.6393,-4.639303 9.08828,-8.196112 13.1566,-10.616875 4.06832,-2.414825 7.75597,-3.681712 11.53285,-4.157538 3.78283,-0.481782 7.66081,-0.160594 11.28304,0.630466 3.62223,0.797013 6.99466,2.0639 10.83696,4.544153 3.84825,2.48023804 8.17232,6.167903 12.93654,11.56853 4.76423,5.4065786 9.98047,12.5261346 14.9707,19.9906776 4.99023,7.47048 9.75444,15.285931 13.91794,22.690983 4.16348,7.405054 7.72622,14.399707 10.45628,19.960942 2.73601,5.56122 4.63932,9.694959 5.69207,12.139521 1.04683,2.450516 1.23715,3.211838 0.34499,4.193229 -0.88622,0.987345 -2.85496,2.194757 -4.79396,3.306985 -1.93899,1.112253 -3.84824,2.129329 -4.77015,2.57542 -0.92192,0.44609 -0.85649,0.321194 -1.84384,-2.956078 -0.98139,-3.271298 -3.01556,-9.694959 -6.0073,-16.618246 -2.98582,-6.929225 -6.92329,-14.369969 -10.70611,-21.614428 -3.78283,-7.244459 -7.40505,-14.304541 -10.3314,-18.943859 -2.92632,-4.639304 -5.15082,-6.863798 -7.75597,-9.724713 -2.60516,-2.860898 -5.59096,-6.352279 -8.61247,-9.403524 -3.01555,-3.05123 -6.06678,-5.6563846 -9.62954,-7.6310736 -3.55681,-1.96872 -7.62512,-3.301035 -10.8667,-3.717387 -3.24156,-0.410399 -5.65638,0.09517 -7.88088,0.826751 -2.22449,0.731585 -4.25864,1.683239 -7.11956,4.008837 -2.8609,2.319659 -6.54855,6.0013696 -10.74179,10.7061016 -4.19917,4.704732 -8.90389,10.42656 -14.6852,19.050917 -5.78724,8.63031 -12.65104,20.169102 -33.05212,56.016702"
         id="path530" /><path
         style="fill:#000c21;fill-opacity:1;fill-rule:evenodd;stroke:#000c21;stroke-width:0.609059;stroke-linecap:butt;stroke-linejoin:round;stroke-miterlimit:10;stroke-opacity:1"
         d="m 218.54627,142.49086 c 82.75818,-55.10668 99.3467,-63.879737 113.96648,-70.612694 14.61977,-6.738895 27.2708,-11.443626 36.6446,-14.429443 9.37379,-2.991756 15.47628,-4.258642 21.99511,-4.835588 6.51287,-0.570992 13.44209,-0.440136 18.46207,0.101103 5.01997,0.535303 8.13664,1.492909 11.18787,4.032621 3.05124,2.545681 6.03706,6.673482 8.20206,10.87265 2.15907,4.193229 3.49138,8.451871 4.03264,13.507527 0.54126,5.049717 0.2855,10.896431 -0.22007,19.574334 -0.50556,8.67788 -1.27284,20.181 -3.08098,33.30786 -1.81409,13.12094 -4.67499,27.87157 -6.13817,35.34205 -1.46316,7.46452 -1.52264,7.65485 -1.84383,7.72028 -0.31524,0.0655 -0.88622,0 -8.61246,-1.0825 -7.72029,-1.07656 -22.59582,-3.17614 -36.29368,-4.60957 -13.69788,-1.42748 -26.21805,-2.1888 -39.4401,-2.92039 -13.22203,-0.73159 -27.13997,-1.42748 -40.55234,-1.84383 -13.41236,-0.4104 -26.31322,-0.54124 -33.65284,-0.76132 -7.34558,-0.22601 -9.12398,-0.54125 -9.98047,-0.76727 -0.86244,-0.22007 -0.79701,-0.34496 -4.77016,-3.14046 -3.97316,-2.79548 -11.97894,-8.26749 -18.46208,-12.38339 -6.48315,-4.1159 -11.44365,-6.88165 -11.44365,-6.88165"
         id="path532" /><path
         style="fill:#000c21;fill-opacity:1;fill-rule:evenodd;stroke:none;stroke-width:1.52265"
         d="m 419.137,176.84556 c 0.36877,13.46589 0.33309,14.20937 0.31524,14.61383 -0.0178,0.40445 -0.0178,0.48179 2.97988,0.29739 2.9977,-0.18437 8.98717,-0.63046 16.85616,-0.13673 7.86898,0.49367 17.61748,1.92709 25.57568,3.41406 7.95821,1.4929 14.13206,3.05123 20.09179,4.6393 5.95974,1.59403 11.71128,3.21778 17.52826,5.0735 5.82293,1.85573 11.71129,3.94342 17.35579,6.63184 5.64449,2.69437 11.03918,5.99542 14.2748,8.21991 3.23562,2.2245 4.31218,3.37242 5.28763,5.19245 0.98139,1.82005 1.85573,4.3122 2.12338,7.28015 0.2736,2.96798 -0.0655,6.40584 -1.1063,10.51578 -1.04682,4.1159 -2.80144,8.90391 -4.55009,12.58562 -1.75462,3.68171 -3.50922,6.25711 -5.83484,9.20131 -2.3256,2.93823 -5.22814,6.24522 -8.32697,9.95071 -3.10476,3.71145 -6.40581,7.8214 -10.38492,12.3715 -3.97314,4.55011 -8.62435,9.54033 -14.72682,15.44059 -6.10249,5.90024 -13.6503,12.70457 -18.5394,16.95727 -4.88913,4.24675 -7.11362,5.92999 -8.21397,6.79838 -1.10034,0.87433 -1.07061,0.92786 -0.73158,1.26094 0.33902,0.33309 0.98733,0.93975 1.86167,1.89735 0.86837,0.95761 1.95684,2.2602 2.67058,2.91445 0.71968,0.65426 1.06467,0.65426 2.56947,-0.48177 1.49884,-1.1301 4.15158,-3.39028 7.72028,-6.30471 3.56274,-2.91445 8.04147,-6.47719 13.08524,-11.0035 5.03781,-4.52035 10.63473,-9.99831 15.63091,-14.935 4.99618,-4.93672 9.39162,-9.33216 13.91197,-14.37592 4.52631,-5.04377 9.17753,-10.74181 12.52616,-15.37516 3.34863,-4.63337 5.39468,-8.19611 6.95896,-11.21761 1.56428,-3.02151 2.65274,-5.50176 3.45569,-7.91657 0.8089,-2.41482 1.32637,-4.76422 1.52264,-7.72031 0.19629,-2.95606 0.0655,-6.52476 -0.0655,-9.04664 -0.13079,-2.52188 -0.2617,-4.0029 -0.77917,-5.6326 -0.52341,-1.62971 -1.43937,-3.41406 -2.83116,-5.72776 -1.39179,-2.31966 -3.25942,-5.16272 -5.58501,-7.58943 -2.3256,-2.42672 -5.1092,-4.4252 -7.61324,-6.10249 -2.49809,-1.67134 -4.71664,-3.0215 -7.30394,-4.3895 -2.5873,-1.36801 -5.54337,-2.7598 -9.52844,-4.30623 -3.97909,-1.54644 -8.98122,-3.24157 -14.63165,-4.89508 -5.6564,-1.64754 -11.96111,-3.2594 -17.93868,-4.74042 -5.97757,-1.47506 -11.63397,-2.82523 -19.94309,-4.57389 -8.30317,-1.7546 -19.26503,-3.90771 -45.6199,-8.73141"
         id="path534" /><path
         style="fill:#000c21;fill-opacity:1;fill-rule:evenodd;stroke:none;stroke-width:1.52265"
         d="m 391.71154,394.09022 c 43.56195,-32.87963 61.5244,-46.35742 70.96361,-53.45913 9.43328,-7.10766 10.33736,-7.84519 10.93213,-8.21396 0.58883,-0.36281 0.87433,-0.36281 3.07503,1.92115 2.20665,2.28991 6.3285,6.86975 10.68231,11.39011 4.34787,4.52036 8.9277,8.98122 13.50158,13.75733 4.57984,4.77611 9.15372,9.85557 12.96629,14.48894 3.81256,4.63336 6.86975,8.81468 10.08753,13.44805 3.22372,4.63337 6.61398,9.71876 8.84442,13.25176 2.23045,3.53303 3.30105,5.5077 4.15159,7.54187 0.84459,2.03416 1.46912,4.1278 1.89141,6.86379 0.42231,2.74196 0.64831,6.13222 0.82081,8.78496 0.16653,2.65869 0.27954,4.57982 0.11299,6.7508 -0.17249,2.17689 -0.61858,4.60957 -1.41558,6.69725 -0.79106,2.09364 -1.92115,3.8423 -3.18804,5.59691 -1.27285,1.74867 -2.68843,3.50329 -5.45417,5.87647 -2.77169,2.37318 -6.89354,5.36495 -10.99159,7.68459 -4.09211,2.31372 -8.16044,3.95532 -12.65699,5.43634 -4.49062,1.481 -9.40355,2.80737 -14.40566,3.9553 -5.00214,1.14198 -10.08159,2.10554 -16.61231,3.23561 -6.52477,1.1301 -14.48892,2.42672 -22.99433,3.21778 -8.5054,0.79108 -17.54612,1.07658 -23.57723,1.18957 -6.03108,0.11299 -9.05259,0.0536 -10.70609,0 -1.64755,-0.0596 -1.93305,-0.11298 -3.00365,-4.38354 -1.07656,-4.2646 -2.93824,-12.74027 -5.44228,-21.63823 -2.49809,-8.89796 -5.63855,-18.22417 -17.49853,-53.30449"
         id="path536" /><path
         style="fill:#000c21;fill-opacity:1;fill-rule:evenodd;stroke:none;stroke-width:1.52265"
         d="m 414.44416,467.56978 c 8.4162,26.89611 11.15815,40.15978 12.96033,51.72831 1.79626,11.5745 2.65274,21.45385 2.8966,30.04847 0.24386,8.60058 -0.12486,15.9164 -0.73157,22.9289 -0.61264,7.0125 -1.46912,13.72166 -2.13529,17.50449 -0.67209,3.78282 -1.15983,4.63334 0.33308,2.83711 1.49292,-1.8022 4.9724,-6.25118 7.10766,-10.9797 2.12933,-4.72258 2.92635,-9.72472 3.3189,-16.03536 0.39851,-6.31661 0.39851,-13.93578 0.15464,-20.91854 -0.24387,-6.98277 -0.73158,-13.32314 -1.80219,-20.65684 -1.06466,-7.33367 -2.71221,-15.66063 -11.67559,-51.32981"
         id="path538" /><path
         style="fill:#000c21;fill-opacity:1;fill-rule:evenodd;stroke:none;stroke-width:1.52265"
         d="m 154.18476,561.96787 c 25.91471,-15.46438 43.36566,-27.9013 52.22794,-34.15247 8.86226,-6.25118 9.14182,-6.32255 9.38567,-6.39393 0.24388,-0.0655 0.45205,-0.13673 4.63337,2.4743 4.17538,2.61111 12.32987,7.91063 20.54978,13.2042 8.21989,5.29357 16.51119,10.58713 24.65972,15.56549 8.14853,4.98427 16.16027,9.64738 20.27022,12.12167 4.10995,2.4743 4.31813,2.74791 4.56198,2.99177 0.24387,0.24386 0.52341,0.45798 -0.58883,2.89064 -1.11819,2.43862 -3.62223,7.10766 -6.51288,12.78785 -2.89065,5.67423 -6.1679,12.36556 -9.61766,18.49182 -3.44973,6.13222 -7.07196,11.70533 -11.11054,17.13572 -4.03858,5.43631 -8.49946,10.72988 -12.91871,14.83983 -4.42518,4.10996 -8.81468,7.03631 -12.32985,8.60057 -3.52112,1.57024 -6.1679,1.77841 -9.15967,1.84978 -2.99771,0.0655 -6.34039,-0.006 -9.09423,-0.4223 -2.7479,-0.41635 -4.90697,-1.1836 -6.54857,-1.84383 -1.63566,-0.6602 -2.7479,-1.2193 -5.04971,-3.1345 -2.29586,-1.91519 -5.78131,-5.1865 -8.9515,-8.29128 -3.1702,-3.09883 -6.02516,-6.02515 -9.40353,-10.13511 -3.37837,-4.10996 -7.28015,-9.40352 -12.15736,-17.22492 -4.87723,-7.81547 -10.72395,-18.15874 -22.84564,-41.56348"
         id="path540" /><path
         style="fill:#000c21;fill-opacity:1;fill-rule:evenodd;stroke:none;stroke-width:1.52265"
         d="m 154.60111,545.87302 c 50.99079,-33.01643 51.62125,-33.33167 51.82944,-33.59336 0.20817,-0.26172 0,-0.46989 -2.12339,-1.93304 -2.12337,-1.46318 -6.16789,-4.17539 -9.30242,-6.30472 -3.1345,-2.12337 -5.36493,-3.65791 -8.7433,-6.51287 -3.37837,-2.85496 -7.90468,-7.03035 -10.20649,-9.12399 -2.29586,-2.08768 -2.36724,-2.08768 -2.39698,-2.08768 -0.0356,0 -0.0356,0 -7.4229,-0.14267 -7.38125,-0.13689 -22.14973,-0.41635 -29.50126,-0.48773 -7.34558,-0.0655 -7.28015,0.0714 -7.24446,0.27955 0.0356,0.20818 0.0356,0.48772 1.87953,5.43632 1.84976,4.94264 5.53741,14.55435 8.85037,23.70213 3.30699,9.14181 6.23333,17.81376 13.96551,30.76814"
         id="path542" /><path
         style="fill:#000c21;fill-opacity:1;fill-rule:evenodd;stroke:none;stroke-width:1.52265"
         d="m 196.19431,489.33885 c 19.55648,12.96033 19.6695,13.03765 19.8063,13.07335 0.1308,0.0415 0.27955,0.0415 3.46758,-1.76652 3.18209,-1.80814 9.39759,-5.41846 13.89415,-7.93439 4.49657,-2.51595 7.28015,-3.93154 8.66599,-4.63933 1.3918,-0.70778 1.3918,-0.70778 1.18362,-0.76131 -0.20817,-0.0596 -0.62453,-0.17249 -47.09495,1.95088"
         id="path544" /><path
         style="fill:#000c21;fill-opacity:1;fill-rule:evenodd;stroke:none;stroke-width:1.52265"
         d="m 279.35694,474.90345 c 18.99145,-14.48297 29.35258,-22.45307 35.29445,-27.12806 5.93595,-4.67501 7.45859,-6.06084 7.94631,-6.26902 0.49367,-0.21413 -0.0475,0.74943 -0.73159,2.95012 -0.684,2.20665 -1.51075,5.65046 -3.22967,11.0035 -1.72488,5.35899 -4.34192,12.6332 -5.82888,16.34466 -1.49291,3.71738 -1.86166,3.86608 -2.4624,3.93151 -0.60073,0.0596 -1.43342,0.0297 -31.04174,-0.77322"
         id="path546" /><path
         style="fill:#000c21;fill-opacity:1;fill-rule:evenodd;stroke:none;stroke-width:1.52265"
         d="m 307.44856,438.86552 c -17.4331,2.87281 -27.58606,3.38433 -37.64979,3.87799 -10.06373,0.49368 -20.0442,0.97545 -31.22612,1.21336 -11.17599,0.24386 -23.54749,0.24386 -34.03946,-0.20223 -10.49199,-0.44609 -19.10445,-1.33231 -27.37789,-2.39102 -8.27344,-1.05871 -16.20191,-2.28992 -23.41663,-3.72929 -7.20877,-1.43344 -13.70381,-3.07504 -17.94461,-4.16943 -4.23485,-1.09441 -6.22144,-1.64162 -7.20878,-1.87953 -0.99329,-0.23791 -0.99329,-0.17248 5.15677,5.29952 6.15601,5.46608 18.45613,16.33871 27.62174,23.58316 9.15967,7.24449 15.17293,10.87266 18.24797,12.88897 3.08098,2.01633 3.21777,2.42672 4.0683,2.76574 0.8565,0.33904 2.42672,0.61858 10.49795,0.61858 8.06526,0 22.62555,-0.27954 33.90265,-0.34498 11.28304,-0.0714 19.27693,0.0655 23.61886,0.20222 4.34191,0.13689 5.02591,0.27957 5.67422,0.10705 0.64832,-0.17249 1.26689,-0.64831 6.70323,-4.94267 5.43036,-4.28838 15.68443,-12.38933 42.75897,-32.68929"
         id="path548" /><path
         style="fill:#000c21;fill-opacity:1;fill-rule:evenodd;stroke:none;stroke-width:1.52265"
         d="m 127.75853,475.1057 c -3.90772,-9.2251 -6.56642,-16.29113 -8.47565,-21.40032 -1.91522,-5.10919 -3.0691,-8.2675 -3.71741,-10.62878 -0.64831,-2.36725 -0.79701,-3.93152 -0.86838,-4.92482 -0.0714,-0.99328 -0.0714,-1.40368 0.47583,-1.05275 0.54719,0.35092 1.6416,1.46316 4.2408,3.90178 2.60515,2.43265 6.71511,6.19168 12.12168,11.00348 5.41254,4.81181 12.1217,10.67637 16.68368,14.51272 4.562,3.84231 6.9768,5.65639 8.32103,6.70916 1.33825,1.05277 1.6059,1.34421 1.74271,1.48695 0.1308,0.14877 0.1308,0.14877 -30.46482,0.45798"
         id="path550" /><path
         style="fill:#000c21;fill-opacity:1;fill-rule:evenodd;stroke:none;stroke-width:1.52265"
         d="m 22.803038,471.9117 c 8.202068,-24.30286 14.084475,-42.25937 18.289589,-55.07696 4.205125,-12.82352 6.732956,-20.51407 8.053379,-24.64782 1.314466,-4.13375 1.415568,-4.71663 0.796994,-5.26384 -0.618574,-0.54719 -1.956825,-1.06466 -11.735074,-8.42807 C 28.429687,371.13159 10.211469,356.91626 -0.40541701,348.04209 -11.022299,339.16791 -14.037852,335.62895 -19.414695,330.09747 c -5.38279,-5.53743 -13.120923,-13.06739 -19.592166,-19.66949 -6.477193,-6.60803 -11.687495,-12.28227 -18.117105,-19.35426 -6.435557,-7.07791 -14.084472,-15.55357 -18.890323,-21.49546 -4.799902,-5.93594 -6.762689,-9.34405 -8.57083,-12.31202 -1.802193,-2.96797 -3.455692,-5.49581 -4.722581,-8.48756 -1.260941,-2.99175 -2.14122,-6.44745 -2.03416,-9.80204 0.101114,-3.35456 1.18362,-6.60209 3.223727,-9.59981 2.040107,-2.99175 5.031867,-5.72181 9.415422,-8.65409 4.389502,-2.92635 10.16485,-6.04895 15.969937,-8.58868 5.805086,-2.54567 11.633964,-4.5025 19.788447,-6.77457 8.15448,-2.27208 18.628617,-4.84749 26.884213,-6.65564 8.2555932,-1.80814 14.2866964,-2.83711 19.473211,-3.55681 5.186515,-0.72563 9.522481,-1.13602 11.919461,-1.37989 2.396979,-0.23792 2.866853,-0.30333 3.122611,-0.33308 0.255758,-0.0297 0.309293,-0.0297 0.309293,-1.99253 0,-1.96278 -0.05352,-5.88239 -0.101123,-7.76786 -0.05352,-1.87952 -0.101122,-1.72487 -1.778405,-1.49291 -1.677282,0.23196 -4.98428,0.54125 -11.74102,1.57023 -6.7626956,1.03493 -16.975125,2.78954 -26.545191,4.67499 -9.570065,1.87953 -18.497765,3.8899 -27.13997,6.21549 -8.648151,2.31966 -17.004858,4.95455 -23.273878,7.68461 -6.269018,2.736 -10.450344,5.57312 -14.00715,8.10095 -3.562752,2.53377 -6.500983,4.75231 -8.773058,6.99466 -2.266124,2.24827 -3.866091,4.51439 -5.079449,6.50098 -1.213358,1.98657 -2.040108,3.68766 -2.712218,5.88239 -0.6721,2.19477 -1.18361,4.87724 -1.13603,7.61324 0.0535,2.73005 0.6721,5.51959 1.49885,8.3924 0.82675,2.87876 1.85573,5.84673 3.663868,9.80798 1.808142,3.96126 4.389504,8.90985 7.458586,13.76329 3.069083,4.84747 6.625888,9.59385 12.300123,16.26732 5.680183,6.66753 13.471845,15.25621 20.978012,22.93485 7.506168,7.67272 14.732788,14.42946 18.54535,17.96842 3.818509,3.53301 4.234858,3.84229 4.312179,4.15158 0.07732,0.30928 -0.178434,0.61858 -4.615519,4.91291 -4.437085,4.29434 -13.055498,12.57968 -21.489527,21.54306 -8.439978,8.96339 -16.695573,18.61077 -22.114051,25.27234 -5.418476,6.66753 -7.99389,10.34329 -10.420606,14.57816 -2.426717,4.24081 -4.698789,9.03476 -6.114373,12.9068 -1.421532,3.87203 -1.986582,6.81027 -2.093642,9.67712 -0.10111,2.86091 0.26171,5.64451 0.41635,7.29205 0.15465,1.64755 0.10111,2.14717 0.67211,3.61033 0.565041,1.46912 1.754608,3.88989 3.455688,6.52479 1.701082,2.62893 3.919624,5.46605 6.887594,7.83923 2.96797,2.3732 6.679419,4.28244 12.561827,6.88759 5.882408,2.60516 13.935778,5.91215 21.983197,8.25561 8.04742,2.3494 16.094841,3.74118 28.091625,5.71585 11.996782,1.9747 27.94292299,4.53227 50.080766,6.38799"
         id="path552" /><path
         style="fill:#025787;fill-opacity:1;fill-rule:evenodd;stroke:none;stroke-width:1.52265"
         d="m 46.749016,258.03352 c -4.21106,-13.93579 -6.792425,-22.83375 -8.725466,-29.23957 -1.933051,-6.41177 -3.217778,-10.33733 -4.556049,-14.32834 -1.344206,-3.98504 -2.747893,-8.02956 -3.82445,-12.08005 -1.082512,-4.04452 -1.843831,-8.08905 -2.307759,-10.21243 -0.457992,-2.12337 -0.618574,-2.32559 3.990988,-2.88469 4.603627,-0.5591 13.977418,-1.48102 23.291729,-2.38509 9.320256,-0.90407 18.569141,-1.78435 26.925846,-2.4862 8.350757,-0.70184 15.803407,-1.2193 20.853105,-1.48101 5.04972,-0.26169 7.69055,-0.26169 9.0764,-0.19627 1.3799,0.0596 1.49885,0.17844 1.46317,0.31524 -0.0416,0.14266 -0.24386,0.30334 -1.98658,4.90695 -1.74271,4.60959 -5.02592,13.66218 -7.52995,20.49624 -2.50404,6.82812 -4.228918,11.43769 -5.246008,14.40566 -1.02301,2.96202 -1.34421,4.28244 -1.84381,5.18651 -0.50557,0.89812 -1.18363,1.37991 -4.34787,3.28321 -3.16427,1.90331 -8.814698,5.22814 -15.006398,8.78494 -6.191699,3.55681 -12.918688,7.33963 -29.870027,17.9149"
         id="path554" /><path
         style="fill:#000c21;fill-opacity:1;fill-rule:evenodd;stroke:none;stroke-width:1.52265"
         d="m 122.27463,220.68112 c 13.60864,-10.16487 23.77349,-19.03307 31.23801,-25.7125 7.46455,-6.67348 12.22876,-11.15219 14.95881,-13.38858 2.72412,-2.24233 3.41407,-2.24233 4.27651,-2.24233 0.86242,0 1.8914,0 14.17964,-0.25577 12.28822,-0.26169 35.82975,-0.77915 48.29046,-0.54719 12.45477,0.23196 13.83466,1.20742 14.89933,2.04011 1.05872,0.8327 1.80814,1.52264 11.14029,8.23775 9.32621,6.72104 27.24109,19.46725 36.31153,25.9504 9.07045,6.48909 9.30241,6.72106 9.39164,6.92328 0.0833,0.19628 0.0237,0.36876 -3.27727,0.22602 -3.30103,-0.14267 -9.84366,-0.60073 -16.73719,-1.23119 -6.8876,-0.63643 -14.12017,-1.4394 -23.33932,-2.0996 -9.21319,-0.6602 -20.41297,-1.17767 -33.8729,-1.26095 -13.46591,-0.0892 -29.19792,0.25576 -41.91441,0.60075 -12.71646,0.34497 -22.42333,0.68994 -29.72726,1.12414 -7.30989,0.42824 -12.21686,0.9457 -35.81787,1.63566"
         id="path556" /><path
         style="fill:#000c21;fill-opacity:1;fill-rule:evenodd;stroke:none;stroke-width:1.52265"
         d="m 268.02632,180.1823 c 20.32375,12.94248 23.94598,15.60117 29.4061,19.75277 5.45416,4.15158 12.74621,9.80203 16.52308,12.69267 3.77688,2.89065 4.03264,3.0215 4.18728,3.06313 0.14861,0.0416 0.19033,0 -1.44533,-4.50846 -1.64161,-4.50845 -4.96645,-13.48373 -7.16714,-19.52673 -2.2007,-6.03706 -3.27726,-9.14778 -3.8185,-10.70017 -0.53532,-1.55238 -0.53532,-1.55238 -37.81634,-0.90406"
         id="path558" /><path
         style="fill:#025787;fill-opacity:1;fill-rule:evenodd;stroke:none;stroke-width:1.52265"
         d="m 330.8533,221.85877 c -2.52189,-14.07851 -7.48239,-26.08124 -9.99237,-32.17778 -2.50404,-6.10247 -2.55163,-6.29876 7.74409,-5.56122 10.30165,0.74348 30.94658,2.42077 49.67037,4.05046 18.71782,1.62973 35.50857,3.21184 46.48828,3.90179 10.97969,0.68996 16.14242,0.49367 23.93409,1.30853 7.79165,0.81484 18.21226,2.64083 28.98378,5.13893 10.76558,2.49214 21.88209,5.65638 29.09086,7.97604 7.21472,2.31966 10.52173,3.80661 14.69709,6.00138 4.17539,2.20069 9.21322,5.11512 12.05034,6.91731 2.84305,1.80221 3.48542,2.49214 4.02668,3.00366 0.54719,0.51746 0.98734,0.85054 1.5048,1.51075 0.51745,0.66021 1.11224,1.64756 1.58212,3.59845 0.46988,1.95088 0.81486,4.86532 0.86837,7.16118 0.0475,2.30182 -0.20221,3.97912 -1.14198,7.19094 -0.9338,3.20589 -2.56351,7.95226 -3.75308,11.15814 -1.18361,3.21182 -1.92115,4.89506 -4.29433,8.24964 -2.3732,3.36054 -6.37014,8.39835 -12.32391,15.34542 -5.95379,6.94707 -13.85846,15.79745 -20.91853,23.0419 -7.06605,7.24447 -13.28747,12.87112 -18.23012,17.14762 -4.93672,4.27054 -8.59463,7.18498 -10.44439,8.57083 -1.85573,1.3799 -1.90332,1.23119 -3.43191,0 -1.53454,-1.23715 -4.55009,-3.55681 -9.55817,-7.6846 -5.01403,-4.12185 -12.03247,-10.05185 -18.50372,-15.45843 -6.46529,-5.40657 -12.39528,-10.30165 -20.21075,-16.38033 -7.82138,-6.08464 -17.52232,-13.3529 -26.97342,-20.27617 -9.44516,-6.92329 -18.62862,-13.49564 -27.69312,-19.93715 -9.06449,-6.44745 -18.0041,-12.77 -23.16681,-16.24949 -5.16273,-3.48543 -6.54857,-4.12778 -7.50022,-4.52035 -0.95165,-0.39849 -1.46912,-0.54719 -2.65273,-2.91444"
         id="path560" /><path
         style="fill:#025787;fill-opacity:1;fill-rule:evenodd;stroke:none;stroke-width:1.52265"
         d="m 421.03438,191.82816 c 9.92098,-0.38066 13.00196,-0.38066 15.91639,-0.26171 2.92039,0.11892 5.68018,0.35688 8.40429,0.64832 2.73006,0.28549 5.43038,0.62453 8.90392,1.14793 3.47352,0.51746 7.72028,1.22526 11.52689,1.94494 3.81257,0.72565 7.17905,1.47507 9.86746,2.08175 2.68844,0.61262 4.70473,1.09439 7.02439,1.69513 2.31966,0.60668 4.94861,1.33826 9.11803,2.56353 4.16943,1.23119 9.87936,2.95606 13.3053,4.03856 3.42596,1.08251 4.56794,1.51669 5.65046,1.939 1.08846,0.41634 2.12337,0.81485 3.83635,1.53454 1.71298,0.72563 4.09806,1.76651 6.29282,2.81927 2.19474,1.05278 4.19321,2.12338 5.65638,2.93824 1.46318,0.81485 2.39103,1.37989 3.75903,2.24233 1.36206,0.86839 3.16425,2.03416 4.33598,2.83712 1.17172,0.80296 1.72487,1.23714 2.23639,1.73082 0.51745,0.48772 1.00517,1.04086 1.3442,1.24904"
         id="path562" /><path
         style="fill:#025787;fill-opacity:1;fill-rule:evenodd;stroke:none;stroke-width:1.52265"
         d="m 228.76467,511.57781 c 17.26061,-11.57448 24.31474,-17.67696 28.25815,-20.978 3.94936,-3.29512 4.79396,-3.78878 5.38875,-4.06834 0.59478,-0.27954 0.9457,-0.35093 9.93287,-0.49367 8.98124,-0.13674 26.59278,-0.35092 40.70104,-0.45798 14.10232,-0.1011 24.69541,-0.1011 36.31153,-0.59477 11.61612,-0.49368 24.24337,-1.47507 35.93087,-2.2483 11.68155,-0.76726 22.41739,-1.33232 27.83586,-1.47506 5.41849,-0.14267 5.51366,0.12486 5.73967,0.99924 0.23197,0.86839 0.59478,2.3375 1.15388,4.42519 0.55315,2.09363 1.30852,4.80585 1.98063,7.29799 0.66616,2.49215 1.24904,4.76422 1.71893,6.727 0.47582,1.96278 0.83864,3.61628 1.2312,5.46012 0.39255,1.84977 0.82079,3.88393 1.17172,5.68612 0.35092,1.8022 0.63046,3.37243 0.92191,5.20435 0.29145,1.83195 0.58884,3.93152 0.91596,6.24525 0.32714,2.30775 0.67806,4.82963 0.95166,7.1136 0.2736,2.28397 0.46989,4.33003 0.64237,6.36419 0.17842,2.02821 0.33308,4.04452 0.45798,5.98352 0.12486,1.93899 0.22008,3.80661 0.26765,5.63854 0.0536,1.82599 0.0655,3.62224 0.0714,5.43632 0,1.8141 0,3.65197 -0.0416,5.64449 -0.0475,1.99847 -0.14266,4.1516 -0.25575,6.12628 -0.11298,1.97468 -0.24981,3.77092 -0.4104,5.65044 -0.16059,1.87951 -0.34497,3.83635 -0.52341,5.66235 -0.18437,1.82598 -0.35687,3.51515 -0.59478,5.38279 -0.23197,1.86761 -0.51747,3.90771 -0.81486,5.81102 -0.29144,1.9033 -0.59479,3.66982 -0.75536,4.57389 -0.16059,0.91001 -0.17844,0.95166 -0.76728,1.7784 -0.58884,0.82676 -1.74867,2.43862 -2.95012,3.66981 -1.19553,1.22526 -2.43861,2.06986 -4.50846,3.15237 -2.0758,1.08249 -4.97835,2.40292 -8.57678,2.96201 -3.59251,0.55315 -7.86899,0.34498 -12.36554,-0.47582 -4.49062,-0.8208 -9.19537,-2.24828 -16.9097,-5.04972 -7.7203,-2.80142 -18.44423,-6.97681 -28.21653,-11.52095 -9.77229,-4.54415 -18.58698,-9.46302 -29.16818,-15.6547 C 312.90874,565.35813 300.5551,557.87576 288.0349,550.41122 275.5147,542.94669 262.83392,535.5 228.74688,511.71461"
         id="path564" /><path
         style="fill:#025787;fill-opacity:1;fill-rule:evenodd;stroke:none;stroke-width:1.52265"
         d="m 16.290154,580.5727 c -2.176907,-17.7543 -1.254986,-32.07073 -0.04165,-43.85934 1.213355,-11.7886 2.718153,-21.05533 4.169428,-30.5124 1.451275,-9.46299 2.849016,-19.11634 3.544908,-23.96977 0.695902,-4.85938 0.695902,-4.91291 0.975445,-4.91291 0.279552,0 0.838646,0.0536 6.025161,0.66615 5.192461,0.61859 15.018278,1.7903 24.368275,2.56948 9.344051,0.78512 18.218217,1.17171 28.180843,1.50479 9.962628,0.33904 21.013696,0.61858 26.759306,1.23122 5.75155,0.61262 6.19764,1.56427 6.39393,2.20662 0.19626,0.64238 0.13673,0.97546 2.17689,6.63779 2.03417,5.66831 6.16791,16.6599 10.46225,27.54442 4.30029,10.88455 8.76711,21.65608 10.93806,27.37789 2.17692,5.71588 2.06986,6.38797 1.39775,6.94707 -0.67212,0.5591 -1.89735,1.00519 -6.72701,4.21108 -4.8237,3.21182 -13.25176,9.18345 -19.91929,13.62054 -6.67347,4.43707 -11.58044,7.33961 -17.694798,10.40871 -6.10844,3.06907 -13.424272,6.3047 -19.728975,9.01691 -6.304714,2.70627 -11.610169,4.87724 -15.434629,6.58426 -3.818524,1.70108 -6.167905,2.92633 -9.320267,3.59843 -3.152351,0.67211 -7.113599,0.77917 -10.242167,0.66616 -3.122612,-0.10705 -5.412523,-0.44609 -8.202058,-1.39179 -2.789536,-0.9457 -6.084642,-2.50999 -8.428087,-4.15754 -2.343445,-1.64755 -3.741186,-3.37837 -5.192461,-5.28763 -1.451264,-1.9152 -2.956073,-4.00883 -4.633356,-10.70014"
         id="path566" /><path
         style="fill:#025787;fill-opacity:1;fill-rule:evenodd;stroke:none;stroke-width:1.52265"
         d="m 114.63166,211.70582 c 15.27404,-9.3381 26.40839,-17.94461 33.40305,-23.29172 7.00058,-5.34115 9.84961,-7.41694 11.27709,-8.45187 1.42748,-1.04086 1.42748,-1.04086 -2.20665,-1.04086 -3.62818,0 -10.89048,0 -16.48741,0.0356 -5.59095,0.0297 -9.51653,0.0952 -11.66965,0.13081 -2.15906,0.0297 -2.54566,0.0297 -14.41159,32.71307"
         id="path568" /><path
         style="fill:#025787;fill-opacity:1;fill-rule:evenodd;stroke:none;stroke-width:1.52265"
         d="m 181.53291,167.47177 c 26.56898,-0.45798 39.30923,-0.27358 46.06003,-0.21411 6.75079,0.0596 7.51211,0 7.51211,-0.0596 0,-0.0655 -0.76132,-0.12487 -5.35899,-3.0453 -4.59768,-2.92039 -13.02577,-8.70763 -17.54612,-11.61613 -4.52035,-2.90255 -5.13298,-2.93229 -6.55451,-2.17691 -1.42154,0.76132 -3.65792,2.3137 -24.02331,16.92755"
         id="path570" /></g><text
       xml:space="preserve"
       style="font-style:normal;font-variant:normal;font-weight:normal;font-stretch:normal;font-size:43.6074px;font-family:'URW Bookman';-inkscape-font-specification:'URW Bookman, Normal';font-variant-ligatures:normal;font-variant-caps:normal;font-variant-numeric:normal;font-variant-east-asian:normal;fill:#000000;stroke-width:3.63395"
       x="46.268471"
       y="152.90683"
       id="text113"><tspan
         id="tspan111"
         style="font-style:normal;font-variant:normal;font-weight:normal;font-stretch:normal;font-size:43.6074px;font-family:'URW Bookman';-inkscape-font-specification:'URW Bookman, Normal';font-variant-ligatures:normal;font-variant-caps:normal;font-variant-numeric:normal;font-variant-east-asian:normal;stroke-width:3.63395"
         x="46.268471"
         y="152.90683"
         sodipodi:role="line">SCCF</tspan></text><path
       style="fill:#1fca87;fill-opacity:1;stroke:#ffffff;stroke-width:1.90794;stroke-dasharray:none;stroke-opacity:1"
       id="path730"
       sodipodi:type="arc"
       sodipodi:cx="39.80043"
       sodipodi:cy="96.321701"
       sodipodi:rx="14.682597"
       sodipodi:ry="14.503193"
       sodipodi:start="2.4017936"
       sodipodi:end="2.3767052"
       sodipodi:open="true"
       sodipodi:arc-type="arc"
       d="m 28.955805,106.09888 a 14.682597,14.503193 0 0 1 0.878683,-20.427762 14.682597,14.503193 0 0 1 20.685554,0.739806 14.682597,14.503193 0 0 1 -0.619201,20.437036 14.682597,14.503193 0 0 1 -20.693322,-0.48344" /><rect
       style="fill:#000000;fill-opacity:1;stroke:none;stroke-width:1.32632;stroke-dasharray:none;stroke-opacity:1"
       id="rect5203"
       width="84.774292"
       height="1.9834179"
       x="62.859074"
       y="157.24066" /></g></svg>
